<svg width="27" height="21" viewBox="0 0 27 21" fill="none" xmlns="http://www.w3.org/2000/svg">
<path d="M5.23605 13.1323C4.26405 13.1323 3.38205 12.8743 2.59005 12.3583C1.79805 11.8423 1.16805 11.0923 0.700055 10.1083C0.244055 9.1123 0.0160547 7.9303 0.0160547 6.5623C0.0160547 5.1943 0.244055 4.0183 0.700055 3.0343C1.16805 2.0383 1.79805 1.2823 2.59005 0.766304C3.38205 0.250304 4.26405 -0.00769591 5.23605 -0.00769591C6.20805 -0.00769591 7.09005 0.250304 7.88206 0.766304C8.67406 1.2823 9.29806 2.0383 9.75406 3.0343C10.2221 4.0183 10.4561 5.1943 10.4561 6.5623C10.4561 7.9303 10.2221 9.1123 9.75406 10.1083C9.29806 11.0923 8.67406 11.8423 7.88206 12.3583C7.09005 12.8743 6.20805 13.1323 5.23605 13.1323ZM5.23605 12.7723C6.61605 12.7723 7.30606 10.7023 7.30606 6.5623C7.30606 2.4223 6.61605 0.352304 5.23605 0.352304C3.85605 0.352304 3.16605 2.4223 3.16605 6.5623C3.16605 10.7023 3.85605 12.7723 5.23605 12.7723ZM15.5846 13.1323C14.7566 13.1323 14.0486 13.0183 13.4606 12.7903C12.8846 12.5623 12.4466 12.2683 12.1466 11.9083C11.8586 11.5483 11.7146 11.1763 11.7146 10.7923C11.7146 10.3843 11.8346 10.0603 12.0746 9.8203C12.3266 9.5683 12.6566 9.4423 13.0646 9.4423C13.1606 9.4423 13.2566 9.4543 13.3526 9.4783C13.4486 9.4903 13.5146 9.4963 13.5506 9.4963L13.7846 9.5323V12.4123C13.7966 12.4123 13.9226 12.4603 14.1626 12.5563C14.4746 12.6403 14.8286 12.6823 15.2246 12.6823C16.0646 12.6823 16.7066 12.4303 17.1506 11.9263C17.6066 11.4103 17.8346 10.6423 17.8346 9.6223C17.8346 8.5783 17.6126 7.7923 17.1686 7.2643C16.7366 6.7363 16.1486 6.4723 15.4046 6.4723H14.5046V6.0223H15.4046C15.9446 6.0223 16.3946 5.7823 16.7546 5.3023C17.1146 4.8223 17.2946 4.1323 17.2946 3.2323C17.2946 2.3323 17.1086 1.6423 16.7366 1.1623C16.3646 0.682304 15.8906 0.442304 15.3146 0.442304C15.0026 0.442304 14.7026 0.490304 14.4146 0.586304C14.3786 0.598304 14.2586 0.640304 14.0546 0.712304V3.5923L13.8206 3.6463C13.6286 3.6703 13.4666 3.6823 13.3346 3.6823C12.9266 3.6823 12.5966 3.5623 12.3446 3.3223C12.1046 3.0703 11.9846 2.7403 11.9846 2.3323C11.9846 1.9603 12.1286 1.5943 12.4166 1.2343C12.7046 0.874304 13.1246 0.580304 13.6766 0.352304C14.2406 0.112304 14.9066 -0.00769591 15.6746 -0.00769591C16.6826 -0.00769591 17.5346 0.142304 18.2306 0.442304C18.9386 0.730304 19.4666 1.1203 19.8146 1.6123C20.1746 2.1043 20.3546 2.6443 20.3546 3.2323C20.3546 3.9163 20.1806 4.4623 19.8326 4.8703C19.4846 5.2663 19.0286 5.5843 18.4646 5.8243C17.9126 6.0403 17.2826 6.1663 16.5746 6.2023V6.2923C17.3666 6.3283 18.0866 6.4663 18.7346 6.7063C20.1746 7.2823 20.8946 8.2543 20.8946 9.6223C20.8946 10.6783 20.4566 11.5303 19.5806 12.1783C18.7166 12.8143 17.3846 13.1323 15.5846 13.1323Z" fill="white"/>
</svg>
