<svg width="29" height="21" viewBox="0 0 29 21" fill="none" xmlns="http://www.w3.org/2000/svg">
<path d="M6.10422 13.1323C5.13222 13.1323 4.25022 12.8743 3.45822 12.3583C2.66622 11.8423 2.03622 11.0923 1.56822 10.1083C1.11222 9.1123 0.884219 7.9303 0.884219 6.5623C0.884219 5.1943 1.11222 4.0183 1.56822 3.0343C2.03622 2.0383 2.66622 1.2823 3.45822 0.766304C4.25022 0.250304 5.13222 -0.00769591 6.10422 -0.00769591C7.07622 -0.00769591 7.95822 0.250304 8.75022 0.766304C9.54222 1.2823 10.1662 2.0383 10.6222 3.0343C11.0902 4.0183 11.3242 5.1943 11.3242 6.5623C11.3242 7.9303 11.0902 9.1123 10.6222 10.1083C10.1662 11.0923 9.54222 11.8423 8.75022 12.3583C7.95822 12.8743 7.07622 13.1323 6.10422 13.1323ZM6.10422 12.7723C7.48422 12.7723 8.17422 10.7023 8.17422 6.5623C8.17422 2.4223 7.48422 0.352304 6.10422 0.352304C4.72422 0.352304 4.03422 2.4223 4.03422 6.5623C4.03422 10.7023 4.72422 12.7723 6.10422 12.7723ZM16.3628 12.8623V12.5923L17.6228 12.2323V9.5323H12.4928L12.1328 8.9923L18.8828 0.082304H20.5928V8.7223H22.4828V9.5323H20.5928V12.2323L21.8528 12.5923V12.8623H16.3628ZM13.1228 8.7223H17.6228V2.7823L13.1228 8.7223Z" fill="white"/>
</svg>
